<svg width="53" height="52" viewBox="0 0 53 52" fill="none" xmlns="http://www.w3.org/2000/svg">
<path d="M20.25 15.1667H33.25M33.25 36.8333V30.3333M26.75 36.8333H26.7717M20.25 36.8333H20.2717M20.25 30.3333H20.2717M26.75 30.3333H26.7717M33.25 23.8333H33.2717M26.75 23.8333H26.7717M20.25 23.8333H20.2717M15.9167 45.5H37.5833C38.7326 45.5 39.8348 45.0435 40.6475 44.2308C41.4601 43.4181 41.9167 42.3159 41.9167 41.1667V10.8333C41.9167 9.68406 41.4601 8.58186 40.6475 7.7692C39.8348 6.95655 38.7326 6.5 37.5833 6.5H15.9167C14.7674 6.5 13.6652 6.95655 12.8525 7.7692C12.0399 8.58186 11.5833 9.68406 11.5833 10.8333V41.1667C11.5833 42.3159 12.0399 43.4181 12.8525 44.2308C13.6652 45.0435 14.7674 45.5 15.9167 45.5Z" stroke="white" stroke-width="4" stroke-linecap="round" stroke-linejoin="round"/>
</svg>
