<svg width="32" height="32" viewBox="0 0 32 32" fill="none" xmlns="http://www.w3.org/2000/svg">
<g clip-path="url(#clip0_11_98)">
<path d="M29.3333 16.72C26.928 16.26 25.732 15.28 24.636 12.8C23.9867 13.728 23.1667 14.8907 23.4093 16C23.4467 16.3173 22.9827 17.3333 22.6667 17.3333H4C4 24.2773 8.21867 26.6667 12.2613 26.6667C17.76 26.696 22.6987 24.832 25.4 20C26.928 19.8653 28.4613 17.9933 29.3333 16.72Z" stroke="white" stroke-width="2" stroke-linecap="round" stroke-linejoin="round"/>
<path d="M6.66666 13.3333H10.6667V17.3333H6.66666V13.3333Z" stroke="white" stroke-width="2" stroke-linecap="round" stroke-linejoin="round"/>
<path d="M10.6667 13.3333H14.6667V17.3333H10.6667V13.3333Z" stroke="white" stroke-width="2" stroke-linecap="round" stroke-linejoin="round"/>
<path d="M14.6667 13.3333H18.6667V17.3333H14.6667V13.3333Z" stroke="white" stroke-width="2" stroke-linecap="round" stroke-linejoin="round"/>
<path d="M10.6667 9.33333H14.6667V13.3333H10.6667V9.33333Z" stroke="white" stroke-width="2" stroke-linecap="round" stroke-linejoin="round"/>
<path d="M14.6667 9.33333H18.6667V13.3333H14.6667V9.33333Z" stroke="white" stroke-width="2" stroke-linecap="round" stroke-linejoin="round"/>
<path d="M14.6667 5.33333H18.6667V9.33333H14.6667V5.33333Z" stroke="white" stroke-width="2" stroke-linecap="round" stroke-linejoin="round"/>
</g>
<defs>
<clipPath id="clip0_11_98">
<rect width="32" height="32" fill="white"/>
</clipPath>
</defs>
</svg>
