<svg width="24" height="25" viewBox="0 0 24 25" fill="none" xmlns="http://www.w3.org/2000/svg">
<g clip-path="url(#clip0_11_163)">
<path d="M12 0.817749C5.625 0.817749 0.375 5.99275 0.375 12.4427C0.375 17.5427 3.7125 21.8927 8.3625 23.4677C8.9625 23.5802 9.15 23.2052 9.15 22.9427C9.15 22.6802 9.15 21.9302 9.1125 20.9177C5.8875 21.6677 5.2125 19.3427 5.2125 19.3427C4.6875 18.0302 3.9 17.6552 3.9 17.6552C2.85 16.9052 3.9375 16.9052 3.9375 16.9052C5.1 16.9427 5.7375 18.1052 5.7375 18.1052C6.75 19.9052 8.475 19.3802 9.1125 19.0427C9.225 18.2927 9.525 17.7677 9.8625 17.4677C7.3125 17.2052 4.575 16.1927 4.575 11.7677C4.575 10.4927 5.0625 9.48025 5.775 8.69275C5.6625 8.43025 5.25 7.23025 5.8875 5.61775C5.8875 5.61775 6.9 5.31775 9.1125 6.81775C10.05 6.55525 11.025 6.40525 12.0375 6.40525C13.05 6.40525 14.0625 6.51775 14.9625 6.81775C17.175 5.35525 18.15 5.61775 18.15 5.61775C18.7875 7.19275 18.4125 8.43025 18.2625 8.69275C19.0125 9.48025 19.4625 10.5302 19.4625 11.7677C19.4625 16.1927 16.725 17.2052 14.175 17.4677C14.5875 17.8427 14.9625 18.5927 14.9625 19.6427C14.9625 21.2177 14.925 22.4552 14.925 22.8302C14.925 23.1302 15.15 23.4677 15.7125 23.3552C20.2875 21.8177 23.625 17.5052 23.625 12.3677C23.5875 5.99275 18.375 0.817749 12 0.817749Z" fill="white"/>
</g>
<defs>
<clipPath id="clip0_11_163">
<rect width="24" height="24" fill="white" transform="translate(0 0.142822)"/>
</clipPath>
</defs>
</svg>
