<svg width="24" height="25" viewBox="0 0 24 25" fill="none" xmlns="http://www.w3.org/2000/svg">
<g clip-path="url(#clip0_11_165)">
<path d="M21.9381 0.517822H2.10059C1.16309 0.517822 0.413086 1.26782 0.413086 2.20532V22.0803C0.413086 22.9803 1.16309 23.7678 2.10059 23.7678H21.8631C22.8006 23.7678 23.5506 23.0178 23.5506 22.0803V2.16782C23.6256 1.26782 22.8756 0.517822 21.9381 0.517822ZM7.2756 20.2803H3.8631V9.21782H7.2756V20.2803ZM5.5506 7.68032C4.4256 7.68032 3.56309 6.78032 3.56309 5.69282C3.56309 4.60532 4.4631 3.70532 5.5506 3.70532C6.6381 3.70532 7.5381 4.60532 7.5381 5.69282C7.5381 6.78032 6.7131 7.68032 5.5506 7.68032ZM20.2131 20.2803H16.8006V14.9178C16.8006 13.6428 16.7631 11.9553 15.0006 11.9553C13.2006 11.9553 12.9381 13.3803 12.9381 14.8053V20.2803H9.5256V9.21782H12.8631V10.7553H12.9006C13.3881 9.85532 14.4756 8.95532 16.1631 8.95532C19.6506 8.95532 20.2881 11.2053 20.2881 14.2803V20.2803H20.2131Z" fill="white"/>
</g>
<defs>
<clipPath id="clip0_11_165">
<rect width="24" height="24" fill="white" transform="translate(0 0.142822)"/>
</clipPath>
</defs>
</svg>
