<svg width="59" height="58" viewBox="0 0 59 58" fill="none" xmlns="http://www.w3.org/2000/svg">
<path d="M17.4167 19.3333H41.5833M17.4167 29H27.0833M29.5 48.3333L19.8333 38.6667H12.5833C11.3015 38.6667 10.0721 38.1574 9.16565 37.251C8.25922 36.3446 7.75 35.1152 7.75 33.8333V14.5C7.75 13.2181 8.25922 11.9887 9.16565 11.0823C10.0721 10.1759 11.3015 9.66666 12.5833 9.66666H46.4167C47.6985 9.66666 48.9279 10.1759 49.8343 11.0823C50.7408 11.9887 51.25 13.2181 51.25 14.5V33.8333C51.25 35.1152 50.7408 36.3446 49.8343 37.251C48.9279 38.1574 47.6985 38.6667 46.4167 38.6667H39.1667L29.5 48.3333Z" stroke="white" stroke-width="4" stroke-linecap="round" stroke-linejoin="round"/>
</svg>
