<svg width="32" height="32" viewBox="0 0 32 32" fill="none" xmlns="http://www.w3.org/2000/svg">
<g clip-path="url(#clip0_11_94)">
<path d="M12 12V22.7253C11.9999 23.1929 11.8769 23.6522 11.6433 24.0572C11.4097 24.4622 11.0738 24.7986 10.6691 25.0328C10.2645 25.267 9.80537 25.3907 9.33783 25.3915C8.8703 25.3923 8.41077 25.2702 8.00533 25.0373L5.91467 23.8373C5.32966 23.4799 4.84633 22.9782 4.51105 22.3802C4.17576 21.7823 3.99979 21.1082 4 20.4227V11.576C4.00001 10.8907 4.1761 10.2169 4.51137 9.61918C4.84664 9.02148 5.32985 8.51994 5.91467 8.16267L13.9147 3.27333C14.5426 2.88972 15.2642 2.68674 16 2.68674C16.7358 2.68674 17.4574 2.88972 18.0853 3.27333L26.0853 8.16267C26.6703 8.52006 27.1537 9.02181 27.489 9.61976C27.8242 10.2177 28.0002 10.8918 28 11.5773V20.4227C28 21.108 27.8239 21.7818 27.4886 22.3795C27.1534 22.9772 26.6701 23.4787 26.0853 23.836L18.0853 28.7253C17.4574 29.1089 16.7358 29.3119 16 29.3119C15.2642 29.3119 14.5426 29.1089 13.9147 28.7253" stroke="white" stroke-width="2" stroke-linecap="round" stroke-linejoin="round"/>
<path d="M22.6667 12H18C17.4696 12 16.9609 12.2107 16.5858 12.5858C16.2107 12.9609 16 13.4696 16 14C16 14.5304 16.2107 15.0391 16.5858 15.4142C16.9609 15.7893 17.4696 16 18 16H20.6667C21.1971 16 21.7058 16.2107 22.0809 16.5858C22.456 16.9609 22.6667 17.4696 22.6667 18C22.6667 18.5304 22.456 19.0391 22.0809 19.4142C21.7058 19.7893 21.1971 20 20.6667 20H16" stroke="white" stroke-width="2" stroke-linecap="round" stroke-linejoin="round"/>
</g>
<defs>
<clipPath id="clip0_11_94">
<rect width="32" height="32" fill="white"/>
</clipPath>
</defs>
</svg>
