<svg width="32" height="32" viewBox="0 0 32 32" fill="none" xmlns="http://www.w3.org/2000/svg">
<g clip-path="url(#clip0_18_2)">
<path d="M8.408 11.6147C4.93867 12.5787 2.66667 14.1827 2.66667 16C2.66667 18.9467 8.636 21.3333 16 21.3333C17.0307 21.3333 18.0347 21.2867 18.9973 21.1973" stroke="white" stroke-width="2" stroke-linecap="round" stroke-linejoin="round"/>
<path d="M23.5893 20.3853C27.06 19.4227 29.3333 17.8173 29.3333 16C29.3333 13.0533 23.364 10.6667 16 10.6667C14.9693 10.6667 13.9653 10.7133 13 10.8027" stroke="white" stroke-width="2" stroke-linecap="round" stroke-linejoin="round"/>
<path d="M8.40667 20.3827C7.50533 23.8693 7.76 26.64 9.33333 27.5467C11.884 29.02 16.9373 25.044 20.6187 18.6667C21.1347 17.7733 21.596 16.8813 22 16" stroke="white" stroke-width="2" stroke-linecap="round" stroke-linejoin="round"/>
<path d="M23.592 11.6213C24.4947 8.13333 24.2413 5.36 22.6667 4.45333C20.116 2.98 15.0627 6.956 11.3813 13.3333C10.8653 14.2267 10.404 15.12 9.99867 16" stroke="white" stroke-width="2" stroke-linecap="round" stroke-linejoin="round"/>
<path d="M16 7.232C13.4333 4.70933 10.9067 3.544 9.33333 4.45333C6.78267 5.92533 7.69867 12.2893 11.3813 18.6667C11.896 19.56 12.4387 20.4053 12.9973 21.1947" stroke="white" stroke-width="2" stroke-linecap="round" stroke-linejoin="round"/>
<path d="M16 24.7653C18.568 27.2893 21.0947 28.456 22.6667 27.5467C25.2173 26.0747 24.3013 19.7107 20.6187 13.3333C20.1187 12.4667 19.5787 11.6227 19.0027 10.804" stroke="white" stroke-width="2" stroke-linecap="round" stroke-linejoin="round"/>
<path d="M15.3333 17.1547C15.485 17.2436 15.6528 17.3016 15.827 17.3255C16.0013 17.3493 16.1785 17.3384 16.3485 17.2935C16.5185 17.2485 16.6779 17.1704 16.8176 17.0636C16.9573 16.9568 17.0744 16.8234 17.1624 16.6711C17.2503 16.5188 17.3072 16.3507 17.3299 16.1763C17.3525 16.0019 17.3405 15.8248 17.2944 15.6551C17.2483 15.4854 17.1692 15.3265 17.0614 15.1875C16.9537 15.0485 16.8195 14.9322 16.6667 14.8453C16.3606 14.6713 15.9981 14.6254 15.6583 14.7177C15.3185 14.8099 15.029 15.0328 14.853 15.3377C14.6769 15.6427 14.6286 16.0048 14.7186 16.3452C14.8086 16.6856 15.0296 16.9766 15.3333 17.1547Z" stroke="white" stroke-width="2" stroke-linecap="round" stroke-linejoin="round"/>
</g>
<defs>
<clipPath id="clip0_18_2">
<rect width="32" height="32" fill="white"/>
</clipPath>
</defs>
</svg>
