<svg width="49" height="50" viewBox="0 0 49 50" fill="none" xmlns="http://www.w3.org/2000/svg">
<path d="M8.16667 8.66668V18.875H9.35492M9.35492 18.875C10.7103 15.5229 13.1395 12.7151 16.2619 10.8918C19.3844 9.06851 23.0235 8.33269 26.609 8.79968C30.1945 9.26666 33.5237 10.9101 36.075 13.4723C38.6262 16.0346 40.2552 19.3709 40.7068 22.9583M9.35492 18.875H18.375M40.8333 41.3333V31.125H39.6471M39.6471 31.125C38.2898 34.4752 35.8599 37.2807 32.7378 39.1024C29.6157 40.9241 25.9776 41.659 22.3932 41.1922C18.8088 40.7254 15.4803 39.0832 12.9289 36.5226C10.3775 33.9621 8.74722 30.6278 8.29325 27.0417M39.6471 31.125H30.625" stroke="white" stroke-width="4" stroke-linecap="round" stroke-linejoin="round"/>
</svg>
