<svg width="58" height="58" viewBox="0 0 58 58" fill="none" xmlns="http://www.w3.org/2000/svg">
<path d="M21.875 40.875C21.875 42.1348 21.3746 43.343 20.4838 44.2338C19.593 45.1246 18.3848 45.625 17.125 45.625C15.8652 45.625 14.657 45.1246 13.7662 44.2338C12.8754 43.343 12.375 42.1348 12.375 40.875C12.375 39.6152 12.8754 38.407 13.7662 37.5162C14.657 36.6254 15.8652 36.125 17.125 36.125C18.3848 36.125 19.593 36.6254 20.4838 37.5162C21.3746 38.407 21.875 39.6152 21.875 40.875ZM45.625 40.875C45.625 42.1348 45.1246 43.343 44.2338 44.2338C43.343 45.1246 42.1348 45.625 40.875 45.625C39.6152 45.625 38.407 45.1246 37.5162 44.2338C36.6254 43.343 36.125 42.1348 36.125 40.875C36.125 39.6152 36.6254 38.407 37.5162 37.5162C38.407 36.6254 39.6152 36.125 40.875 36.125C42.1348 36.125 43.343 36.6254 44.2338 37.5162C45.1246 38.407 45.625 39.6152 45.625 40.875Z" stroke="white" stroke-width="4"/>
<path d="M31.375 38.5V14.75C31.375 14.1201 31.1248 13.516 30.6794 13.0706C30.234 12.6252 29.6299 12.375 29 12.375H10C9.37011 12.375 8.76602 12.6252 8.32062 13.0706C7.87522 13.516 7.625 14.1201 7.625 14.75V38.5C7.625 39.1299 7.87522 39.734 8.32062 40.1794C8.76602 40.6248 9.37011 40.875 10 40.875H12.375M31.375 38.5C31.375 39.1299 31.1248 39.734 30.6794 40.1794C30.234 40.6248 29.6299 40.875 29 40.875H21.875M31.375 38.5V19.5C31.375 18.8701 31.6252 18.266 32.0706 17.8206C32.516 17.3752 33.1201 17.125 33.75 17.125H39.8918C40.5216 17.1251 41.1256 17.3754 41.5709 17.8209L49.6791 25.9291C50.1246 26.3744 50.3749 26.9784 50.375 27.6082V38.5C50.375 39.1299 50.1248 39.734 49.6794 40.1794C49.234 40.6248 48.6299 40.875 48 40.875H45.625M31.375 38.5C31.375 39.1299 31.6252 39.734 32.0706 40.1794C32.516 40.6248 33.1201 40.875 33.75 40.875H36.125M12.375 40.875C12.375 42.1348 12.8754 43.343 13.7662 44.2338C14.657 45.1246 15.8652 45.625 17.125 45.625C18.3848 45.625 19.593 45.1246 20.4838 44.2338C21.3746 43.343 21.875 42.1348 21.875 40.875M12.375 40.875C12.375 39.6152 12.8754 38.407 13.7662 37.5162C14.657 36.6254 15.8652 36.125 17.125 36.125C18.3848 36.125 19.593 36.6254 20.4838 37.5162C21.3746 38.407 21.875 39.6152 21.875 40.875M45.625 40.875C45.625 42.1348 45.1246 43.343 44.2338 44.2338C43.343 45.1246 42.1348 45.625 40.875 45.625C39.6152 45.625 38.407 45.1246 37.5162 44.2338C36.6254 43.343 36.125 42.1348 36.125 40.875M45.625 40.875C45.625 39.6152 45.1246 38.407 44.2338 37.5162C43.343 36.6254 42.1348 36.125 40.875 36.125C39.6152 36.125 38.407 36.6254 37.5162 37.5162C36.6254 38.407 36.125 39.6152 36.125 40.875" stroke="white" stroke-width="4" stroke-linecap="round" stroke-linejoin="round"/>
</svg>
