<svg width="58" height="58" viewBox="0 0 58 58" fill="none" xmlns="http://www.w3.org/2000/svg">
<path d="M24.7719 10.7529C25.7836 6.58237 31.7164 6.58237 32.7281 10.7529C32.8799 11.3794 33.1775 11.9612 33.5967 12.451C34.0159 12.9408 34.5447 13.3247 35.1403 13.5714C35.7359 13.8181 36.3813 13.9208 37.024 13.8709C37.6667 13.8211 38.2886 13.6202 38.839 13.2846C42.5036 11.0521 46.7003 15.2464 44.4678 18.9134C44.1326 19.4636 43.9321 20.0851 43.8823 20.7273C43.8326 21.3696 43.9352 22.0146 44.1816 22.6098C44.4281 23.205 44.8115 23.7336 45.3007 24.1527C45.7899 24.5719 46.3712 24.8697 46.9971 25.0219C51.1676 26.0336 51.1676 31.9664 46.9971 32.9781C46.3706 33.1299 45.7888 33.4275 45.299 33.8467C44.8092 34.2659 44.4253 34.7947 44.1786 35.3903C43.9319 35.9859 43.8292 36.6313 43.8791 37.274C43.9289 37.9167 44.1298 38.5386 44.4654 39.089C46.6979 42.7536 42.5036 46.9503 38.8366 44.7178C38.2864 44.3826 37.6649 44.1821 37.0227 44.1323C36.3804 44.0826 35.7354 44.1852 35.1402 44.4316C34.545 44.6781 34.0164 45.0615 33.5973 45.5507C33.1781 46.0399 32.8803 46.6212 32.7281 47.2471C31.7164 51.4176 25.7836 51.4176 24.7719 47.2471C24.6201 46.6206 24.3225 46.0388 23.9033 45.549C23.4841 45.0592 22.9553 44.6753 22.3597 44.4286C21.7641 44.1819 21.1187 44.0792 20.476 44.1291C19.8333 44.1789 19.2114 44.3798 18.661 44.7154C14.9964 46.9479 10.7997 42.7536 13.0322 39.0866C13.3674 38.5364 13.5679 37.9149 13.6176 37.2727C13.6674 36.6304 13.5648 35.9854 13.3184 35.3902C13.0719 34.795 12.6885 34.2664 12.1993 33.8473C11.7101 33.4281 11.1288 33.1303 10.5029 32.9781C6.33237 31.9664 6.33237 26.0336 10.5029 25.0219C11.1294 24.8701 11.7112 24.5725 12.201 24.1533C12.6908 23.7341 13.0747 23.2053 13.3214 22.6097C13.5681 22.0141 13.6708 21.3687 13.6209 20.726C13.5711 20.0833 13.3702 19.4614 13.0346 18.911C10.8021 15.2464 14.9964 11.0497 18.6634 13.2822C21.0289 14.7262 24.1164 13.4485 24.7719 10.7529Z" stroke="white" stroke-width="4" stroke-linecap="round" stroke-linejoin="round"/>
<path d="M35.875 29C35.875 30.8897 35.1243 32.7019 33.7881 34.0381C32.4519 35.3743 30.6397 36.125 28.75 36.125C26.8603 36.125 25.0481 35.3743 23.7119 34.0381C22.3757 32.7019 21.625 30.8897 21.625 29C21.625 27.1103 22.3757 25.2981 23.7119 23.9619C25.0481 22.6257 26.8603 21.875 28.75 21.875C30.6397 21.875 32.4519 22.6257 33.7881 23.9619C35.1243 25.2981 35.875 27.1103 35.875 29Z" stroke="white" stroke-width="4" stroke-linecap="round" stroke-linejoin="round"/>
</svg>
